<mxfile host="app.diagrams.net" modified="2022-02-03T08:21:45.652Z" agent="5.0 (Windows NT 10.0; Win64; x64) AppleWebKit/537.36 (KHTML, like Gecko) Chrome/97.0.4692.99 Safari/537.36" etag="0XWlPhXkXOb3ryE6pYT8" version="16.5.3" type="github" pages="4">
  <diagram id="m-UGv57kSACHkxUJC_R0" name="SDLC Diagram">
    <mxGraphModel dx="1656" dy="599" grid="1" gridSize="10" guides="1" tooltips="1" connect="1" arrows="1" fold="1" page="1" pageScale="1" pageWidth="850" pageHeight="1100" math="0" shadow="0">
      <root>
        <mxCell id="0" />
        <mxCell id="1" parent="0" />
        <mxCell id="9VT-zQopOtRF9PmwW7Mm-1" value="" style="edgeStyle=orthogonalEdgeStyle;rounded=0;orthogonalLoop=1;jettySize=auto;html=1;fillColor=#dae8fc;strokeColor=#6c8ebf;" edge="1" parent="1" source="9VT-zQopOtRF9PmwW7Mm-3" target="9VT-zQopOtRF9PmwW7Mm-7">
          <mxGeometry relative="1" as="geometry" />
        </mxCell>
        <mxCell id="9VT-zQopOtRF9PmwW7Mm-2" value="" style="edgeStyle=orthogonalEdgeStyle;rounded=0;orthogonalLoop=1;jettySize=auto;html=1;" edge="1" parent="1" source="9VT-zQopOtRF9PmwW7Mm-3" target="9VT-zQopOtRF9PmwW7Mm-12">
          <mxGeometry relative="1" as="geometry" />
        </mxCell>
        <mxCell id="9VT-zQopOtRF9PmwW7Mm-3" value="Problem definition" style="rounded=0;whiteSpace=wrap;html=1;fillColor=#dae8fc;strokeColor=#6c8ebf;" vertex="1" parent="1">
          <mxGeometry x="84" y="200" width="120" height="60" as="geometry" />
        </mxCell>
        <mxCell id="9VT-zQopOtRF9PmwW7Mm-4" value="" style="edgeStyle=orthogonalEdgeStyle;rounded=0;orthogonalLoop=1;jettySize=auto;html=1;" edge="1" parent="1" source="9VT-zQopOtRF9PmwW7Mm-7" target="9VT-zQopOtRF9PmwW7Mm-10">
          <mxGeometry relative="1" as="geometry" />
        </mxCell>
        <mxCell id="9VT-zQopOtRF9PmwW7Mm-5" value="" style="edgeStyle=orthogonalEdgeStyle;rounded=0;orthogonalLoop=1;jettySize=auto;html=1;" edge="1" parent="1" source="9VT-zQopOtRF9PmwW7Mm-7" target="9VT-zQopOtRF9PmwW7Mm-14">
          <mxGeometry relative="1" as="geometry" />
        </mxCell>
        <mxCell id="9VT-zQopOtRF9PmwW7Mm-6" value="" style="edgeStyle=orthogonalEdgeStyle;rounded=0;orthogonalLoop=1;jettySize=auto;html=1;fillColor=#dae8fc;strokeColor=#6c8ebf;" edge="1" parent="1" source="9VT-zQopOtRF9PmwW7Mm-7" target="9VT-zQopOtRF9PmwW7Mm-10">
          <mxGeometry relative="1" as="geometry" />
        </mxCell>
        <mxCell id="9VT-zQopOtRF9PmwW7Mm-7" value="Requirement analysis" style="rounded=0;whiteSpace=wrap;html=1;fillColor=#dae8fc;strokeColor=#6c8ebf;" vertex="1" parent="1">
          <mxGeometry x="244" y="200" width="120" height="60" as="geometry" />
        </mxCell>
        <mxCell id="9VT-zQopOtRF9PmwW7Mm-8" value="" style="edgeStyle=orthogonalEdgeStyle;rounded=0;orthogonalLoop=1;jettySize=auto;html=1;" edge="1" parent="1" source="9VT-zQopOtRF9PmwW7Mm-10" target="9VT-zQopOtRF9PmwW7Mm-19">
          <mxGeometry relative="1" as="geometry" />
        </mxCell>
        <mxCell id="9VT-zQopOtRF9PmwW7Mm-9" value="" style="edgeStyle=orthogonalEdgeStyle;rounded=0;orthogonalLoop=1;jettySize=auto;html=1;fillColor=#dae8fc;strokeColor=#6c8ebf;" edge="1" parent="1" source="9VT-zQopOtRF9PmwW7Mm-10" target="9VT-zQopOtRF9PmwW7Mm-25">
          <mxGeometry relative="1" as="geometry" />
        </mxCell>
        <mxCell id="9VT-zQopOtRF9PmwW7Mm-10" value="Design" style="rounded=0;whiteSpace=wrap;html=1;fillColor=#dae8fc;strokeColor=#6c8ebf;" vertex="1" parent="1">
          <mxGeometry x="404" y="200" width="120" height="60" as="geometry" />
        </mxCell>
        <mxCell id="9VT-zQopOtRF9PmwW7Mm-11" value="" style="edgeStyle=orthogonalEdgeStyle;rounded=0;orthogonalLoop=1;jettySize=auto;html=1;fontSize=36;" edge="1" parent="1" source="9VT-zQopOtRF9PmwW7Mm-12" target="9VT-zQopOtRF9PmwW7Mm-54">
          <mxGeometry relative="1" as="geometry" />
        </mxCell>
        <mxCell id="9VT-zQopOtRF9PmwW7Mm-12" value="Technical (Do we have the necessary resources and infrastructure to support the software if it is&lt;br/&gt;acquired?)&lt;br/&gt;" style="shape=document;whiteSpace=wrap;html=1;boundedLbl=1;" vertex="1" parent="1">
          <mxGeometry x="70" y="315" width="150" height="125" as="geometry" />
        </mxCell>
        <mxCell id="9VT-zQopOtRF9PmwW7Mm-13" value="" style="edgeStyle=orthogonalEdgeStyle;rounded=0;orthogonalLoop=1;jettySize=auto;html=1;" edge="1" parent="1" source="9VT-zQopOtRF9PmwW7Mm-14" target="9VT-zQopOtRF9PmwW7Mm-16">
          <mxGeometry relative="1" as="geometry" />
        </mxCell>
        <mxCell id="9VT-zQopOtRF9PmwW7Mm-14" value="MEDITECH Compatible" style="shape=document;whiteSpace=wrap;html=1;boundedLbl=1;rounded=0;" vertex="1" parent="1">
          <mxGeometry x="234" y="315" width="140" height="65" as="geometry" />
        </mxCell>
        <mxCell id="9VT-zQopOtRF9PmwW7Mm-15" value="" style="edgeStyle=orthogonalEdgeStyle;rounded=0;orthogonalLoop=1;jettySize=auto;html=1;" edge="1" parent="1" source="9VT-zQopOtRF9PmwW7Mm-16" target="9VT-zQopOtRF9PmwW7Mm-17">
          <mxGeometry relative="1" as="geometry" />
        </mxCell>
        <mxCell id="9VT-zQopOtRF9PmwW7Mm-16" value="Point of Care Documentation" style="shape=document;whiteSpace=wrap;html=1;boundedLbl=1;rounded=0;" vertex="1" parent="1">
          <mxGeometry x="234" y="400" width="140" height="60" as="geometry" />
        </mxCell>
        <mxCell id="9VT-zQopOtRF9PmwW7Mm-17" value="Budget" style="shape=document;whiteSpace=wrap;html=1;boundedLbl=1;rounded=0;" vertex="1" parent="1">
          <mxGeometry x="234" y="490" width="140" height="60" as="geometry" />
        </mxCell>
        <mxCell id="9VT-zQopOtRF9PmwW7Mm-18" value="" style="edgeStyle=orthogonalEdgeStyle;rounded=0;orthogonalLoop=1;jettySize=auto;html=1;" edge="1" parent="1" source="9VT-zQopOtRF9PmwW7Mm-19" target="9VT-zQopOtRF9PmwW7Mm-21">
          <mxGeometry relative="1" as="geometry" />
        </mxCell>
        <mxCell id="9VT-zQopOtRF9PmwW7Mm-19" value="Designing the prototypes of the softwares of the new machines" style="shape=document;whiteSpace=wrap;html=1;boundedLbl=1;rounded=0;" vertex="1" parent="1">
          <mxGeometry x="404" y="315" width="120" height="85" as="geometry" />
        </mxCell>
        <mxCell id="9VT-zQopOtRF9PmwW7Mm-21" value="Designing machines where new technologies like AI can be incorporated" style="shape=document;whiteSpace=wrap;html=1;boundedLbl=1;rounded=0;" vertex="1" parent="1">
          <mxGeometry x="404" y="430" width="120" height="80" as="geometry" />
        </mxCell>
        <mxCell id="9VT-zQopOtRF9PmwW7Mm-23" value="" style="edgeStyle=orthogonalEdgeStyle;rounded=0;orthogonalLoop=1;jettySize=auto;html=1;" edge="1" parent="1" source="9VT-zQopOtRF9PmwW7Mm-25" target="9VT-zQopOtRF9PmwW7Mm-27">
          <mxGeometry relative="1" as="geometry" />
        </mxCell>
        <mxCell id="9VT-zQopOtRF9PmwW7Mm-24" value="" style="edgeStyle=orthogonalEdgeStyle;rounded=0;orthogonalLoop=1;jettySize=auto;html=1;fillColor=#dae8fc;strokeColor=#6c8ebf;" edge="1" parent="1" source="9VT-zQopOtRF9PmwW7Mm-25" target="9VT-zQopOtRF9PmwW7Mm-33">
          <mxGeometry relative="1" as="geometry" />
        </mxCell>
        <mxCell id="9VT-zQopOtRF9PmwW7Mm-25" value="Coding" style="rounded=0;whiteSpace=wrap;html=1;fillColor=#dae8fc;strokeColor=#6c8ebf;" vertex="1" parent="1">
          <mxGeometry x="568.5" y="200" width="120" height="60" as="geometry" />
        </mxCell>
        <mxCell id="9VT-zQopOtRF9PmwW7Mm-26" value="" style="edgeStyle=orthogonalEdgeStyle;rounded=0;orthogonalLoop=1;jettySize=auto;html=1;" edge="1" parent="1" source="9VT-zQopOtRF9PmwW7Mm-27" target="9VT-zQopOtRF9PmwW7Mm-29">
          <mxGeometry relative="1" as="geometry" />
        </mxCell>
        <mxCell id="9VT-zQopOtRF9PmwW7Mm-27" value="Writing the algorithms for the application" style="shape=document;whiteSpace=wrap;html=1;boundedLbl=1;rounded=0;" vertex="1" parent="1">
          <mxGeometry x="569" y="315" width="120" height="80" as="geometry" />
        </mxCell>
        <mxCell id="9VT-zQopOtRF9PmwW7Mm-28" value="" style="edgeStyle=orthogonalEdgeStyle;rounded=0;orthogonalLoop=1;jettySize=auto;html=1;" edge="1" parent="1" source="9VT-zQopOtRF9PmwW7Mm-29" target="9VT-zQopOtRF9PmwW7Mm-30">
          <mxGeometry relative="1" as="geometry" />
        </mxCell>
        <mxCell id="9VT-zQopOtRF9PmwW7Mm-29" value="Writing the front end code for the application" style="shape=document;whiteSpace=wrap;html=1;boundedLbl=1;rounded=0;" vertex="1" parent="1">
          <mxGeometry x="569" y="420" width="120" height="80" as="geometry" />
        </mxCell>
        <mxCell id="9VT-zQopOtRF9PmwW7Mm-30" value="Implementing the back end code with the algorithm for the application" style="shape=document;whiteSpace=wrap;html=1;boundedLbl=1;rounded=0;" vertex="1" parent="1">
          <mxGeometry x="568.5" y="530" width="120" height="80" as="geometry" />
        </mxCell>
        <mxCell id="9VT-zQopOtRF9PmwW7Mm-31" value="" style="edgeStyle=orthogonalEdgeStyle;rounded=0;orthogonalLoop=1;jettySize=auto;html=1;" edge="1" parent="1" source="9VT-zQopOtRF9PmwW7Mm-33" target="9VT-zQopOtRF9PmwW7Mm-34">
          <mxGeometry relative="1" as="geometry" />
        </mxCell>
        <mxCell id="9VT-zQopOtRF9PmwW7Mm-32" value="" style="edgeStyle=orthogonalEdgeStyle;rounded=0;orthogonalLoop=1;jettySize=auto;html=1;fillColor=#dae8fc;strokeColor=#6c8ebf;" edge="1" parent="1" source="9VT-zQopOtRF9PmwW7Mm-33" target="9VT-zQopOtRF9PmwW7Mm-37">
          <mxGeometry relative="1" as="geometry" />
        </mxCell>
        <mxCell id="9VT-zQopOtRF9PmwW7Mm-33" value="Testing" style="rounded=0;whiteSpace=wrap;html=1;fillColor=#dae8fc;strokeColor=#6c8ebf;" vertex="1" parent="1">
          <mxGeometry x="724" y="200" width="120" height="60" as="geometry" />
        </mxCell>
        <mxCell id="9VT-zQopOtRF9PmwW7Mm-34" value="Testing and debugging the code written" style="shape=document;whiteSpace=wrap;html=1;boundedLbl=1;rounded=0;" vertex="1" parent="1">
          <mxGeometry x="724" y="315" width="120" height="80" as="geometry" />
        </mxCell>
        <mxCell id="9VT-zQopOtRF9PmwW7Mm-35" value="" style="edgeStyle=orthogonalEdgeStyle;rounded=0;orthogonalLoop=1;jettySize=auto;html=1;" edge="1" parent="1" source="9VT-zQopOtRF9PmwW7Mm-37" target="9VT-zQopOtRF9PmwW7Mm-39">
          <mxGeometry relative="1" as="geometry" />
        </mxCell>
        <mxCell id="9VT-zQopOtRF9PmwW7Mm-36" value="" style="edgeStyle=orthogonalEdgeStyle;rounded=0;orthogonalLoop=1;jettySize=auto;html=1;fillColor=#dae8fc;strokeColor=#6c8ebf;" edge="1" parent="1" source="9VT-zQopOtRF9PmwW7Mm-37" target="9VT-zQopOtRF9PmwW7Mm-42">
          <mxGeometry relative="1" as="geometry" />
        </mxCell>
        <mxCell id="9VT-zQopOtRF9PmwW7Mm-37" value="Deployment" style="whiteSpace=wrap;html=1;rounded=0;fillColor=#dae8fc;strokeColor=#6c8ebf;" vertex="1" parent="1">
          <mxGeometry x="884" y="200" width="120" height="60" as="geometry" />
        </mxCell>
        <mxCell id="9VT-zQopOtRF9PmwW7Mm-39" value="Configuring the software into the hardware machines" style="shape=document;whiteSpace=wrap;html=1;boundedLbl=1;rounded=0;" vertex="1" parent="1">
          <mxGeometry x="884" y="315" width="120" height="80" as="geometry" />
        </mxCell>
        <mxCell id="9VT-zQopOtRF9PmwW7Mm-41" value="" style="edgeStyle=orthogonalEdgeStyle;rounded=0;orthogonalLoop=1;jettySize=auto;html=1;" edge="1" parent="1" source="9VT-zQopOtRF9PmwW7Mm-42" target="9VT-zQopOtRF9PmwW7Mm-43">
          <mxGeometry relative="1" as="geometry" />
        </mxCell>
        <mxCell id="9VT-zQopOtRF9PmwW7Mm-42" value="Scaling" style="whiteSpace=wrap;html=1;rounded=0;fillColor=#dae8fc;strokeColor=#6c8ebf;" vertex="1" parent="1">
          <mxGeometry x="1044" y="200" width="120" height="60" as="geometry" />
        </mxCell>
        <mxCell id="9VT-zQopOtRF9PmwW7Mm-43" value="Implementing the program to existing old machines&amp;nbsp;" style="shape=document;whiteSpace=wrap;html=1;boundedLbl=1;rounded=0;" vertex="1" parent="1">
          <mxGeometry x="1031" y="315" width="146" height="80" as="geometry" />
        </mxCell>
        <mxCell id="9VT-zQopOtRF9PmwW7Mm-44" value="Phase 1&lt;br&gt;Formation" style="text;html=1;strokeColor=none;fillColor=none;align=center;verticalAlign=middle;whiteSpace=wrap;rounded=0;" vertex="1" parent="1">
          <mxGeometry x="108" y="130" width="60" height="30" as="geometry" />
        </mxCell>
        <mxCell id="9VT-zQopOtRF9PmwW7Mm-45" value="Phase 2&lt;br&gt;Requirement/ Planning" style="text;html=1;strokeColor=none;fillColor=none;align=center;verticalAlign=middle;whiteSpace=wrap;rounded=0;" vertex="1" parent="1">
          <mxGeometry x="268" y="130" width="60" height="30" as="geometry" />
        </mxCell>
        <mxCell id="9VT-zQopOtRF9PmwW7Mm-46" value="Phase 3&lt;br&gt;Design" style="text;html=1;strokeColor=none;fillColor=none;align=center;verticalAlign=middle;whiteSpace=wrap;rounded=0;" vertex="1" parent="1">
          <mxGeometry x="428" y="130" width="60" height="30" as="geometry" />
        </mxCell>
        <mxCell id="9VT-zQopOtRF9PmwW7Mm-47" value="Phase 4&lt;br&gt;Construct" style="text;html=1;strokeColor=none;fillColor=none;align=center;verticalAlign=middle;whiteSpace=wrap;rounded=0;" vertex="1" parent="1">
          <mxGeometry x="593" y="130" width="60" height="30" as="geometry" />
        </mxCell>
        <mxCell id="9VT-zQopOtRF9PmwW7Mm-48" value="Phase 5&lt;br&gt;Test" style="text;html=1;strokeColor=none;fillColor=none;align=center;verticalAlign=middle;whiteSpace=wrap;rounded=0;" vertex="1" parent="1">
          <mxGeometry x="748" y="130" width="60" height="30" as="geometry" />
        </mxCell>
        <mxCell id="9VT-zQopOtRF9PmwW7Mm-49" value="Phase 6&lt;br&gt;Product release" style="text;html=1;strokeColor=none;fillColor=none;align=center;verticalAlign=middle;whiteSpace=wrap;rounded=0;" vertex="1" parent="1">
          <mxGeometry x="908" y="130" width="60" height="30" as="geometry" />
        </mxCell>
        <mxCell id="9VT-zQopOtRF9PmwW7Mm-50" value="Phase 7&lt;br&gt;Post Implementation" style="text;html=1;strokeColor=none;fillColor=none;align=center;verticalAlign=middle;whiteSpace=wrap;rounded=0;" vertex="1" parent="1">
          <mxGeometry x="1068" y="130" width="60" height="30" as="geometry" />
        </mxCell>
        <mxCell id="9VT-zQopOtRF9PmwW7Mm-51" value="" style="endArrow=none;html=1;rounded=0;" edge="1" parent="1">
          <mxGeometry width="50" height="50" relative="1" as="geometry">
            <mxPoint x="98" y="110" as="sourcePoint" />
            <mxPoint x="1148" y="110" as="targetPoint" />
          </mxGeometry>
        </mxCell>
        <mxCell id="9VT-zQopOtRF9PmwW7Mm-52" value="" style="endArrow=none;html=1;rounded=0;" edge="1" parent="1">
          <mxGeometry width="50" height="50" relative="1" as="geometry">
            <mxPoint x="101" y="180" as="sourcePoint" />
            <mxPoint x="1150" y="180" as="targetPoint" />
          </mxGeometry>
        </mxCell>
        <mxCell id="9VT-zQopOtRF9PmwW7Mm-53" value="&lt;b&gt;&lt;font style=&quot;font-size: 36px&quot;&gt;Healthcare in 21st Century&lt;/font&gt;&lt;/b&gt;" style="text;html=1;align=center;verticalAlign=middle;resizable=0;points=[];autosize=1;strokeColor=none;fillColor=none;" vertex="1" parent="1">
          <mxGeometry x="394" y="40" width="470" height="30" as="geometry" />
        </mxCell>
        <mxCell id="9VT-zQopOtRF9PmwW7Mm-56" value="" style="edgeStyle=orthogonalEdgeStyle;rounded=0;orthogonalLoop=1;jettySize=auto;html=1;" edge="1" parent="1" source="9VT-zQopOtRF9PmwW7Mm-54" target="9VT-zQopOtRF9PmwW7Mm-55">
          <mxGeometry relative="1" as="geometry" />
        </mxCell>
        <mxCell id="9VT-zQopOtRF9PmwW7Mm-54" value="Economic (Do we have the financial resources to pay for it, including support and&lt;br/&gt;maintenance?)&lt;br/&gt;" style="shape=document;whiteSpace=wrap;html=1;boundedLbl=1;" vertex="1" parent="1">
          <mxGeometry x="70" y="480" width="149" height="100" as="geometry" />
        </mxCell>
        <mxCell id="9VT-zQopOtRF9PmwW7Mm-55" value="Operational (Do we have properly trained individuals who can operate and use the software?)." style="shape=document;whiteSpace=wrap;html=1;boundedLbl=1;" vertex="1" parent="1">
          <mxGeometry x="71" y="620" width="149" height="100" as="geometry" />
        </mxCell>
      </root>
    </mxGraphModel>
  </diagram>
  <diagram id="Zsf49M7KbRcXS9IpoPur" name="Waterfall model">
    <mxGraphModel dx="1753" dy="634" grid="1" gridSize="10" guides="1" tooltips="1" connect="1" arrows="1" fold="1" page="1" pageScale="1" pageWidth="850" pageHeight="1100" math="0" shadow="0">
      <root>
        <mxCell id="2ympeW1HPlJ-J8ujCVrC-0" />
        <mxCell id="2ympeW1HPlJ-J8ujCVrC-1" parent="2ympeW1HPlJ-J8ujCVrC-0" />
        <mxCell id="2ympeW1HPlJ-J8ujCVrC-2" value="&lt;b&gt;&lt;font style=&quot;font-size: 36px&quot;&gt;Waterfall model for Healthcare system&lt;/font&gt;&lt;/b&gt;" style="text;html=1;align=center;verticalAlign=middle;resizable=0;points=[];autosize=1;strokeColor=none;fillColor=none;" vertex="1" parent="2ympeW1HPlJ-J8ujCVrC-1">
          <mxGeometry x="100" y="50" width="670" height="30" as="geometry" />
        </mxCell>
        <mxCell id="2ympeW1HPlJ-J8ujCVrC-6" value="" style="edgeStyle=orthogonalEdgeStyle;rounded=0;orthogonalLoop=1;jettySize=auto;html=1;fontSize=12;" edge="1" parent="2ympeW1HPlJ-J8ujCVrC-1" source="2ympeW1HPlJ-J8ujCVrC-4" target="2ympeW1HPlJ-J8ujCVrC-5">
          <mxGeometry relative="1" as="geometry" />
        </mxCell>
        <mxCell id="2ympeW1HPlJ-J8ujCVrC-4" value="Feasibility Study:&amp;nbsp;" style="rounded=1;whiteSpace=wrap;html=1;fontSize=12;" vertex="1" parent="2ympeW1HPlJ-J8ujCVrC-1">
          <mxGeometry x="50" y="140" width="120" height="60" as="geometry" />
        </mxCell>
        <mxCell id="2ympeW1HPlJ-J8ujCVrC-8" value="" style="edgeStyle=orthogonalEdgeStyle;rounded=0;orthogonalLoop=1;jettySize=auto;html=1;fontSize=12;" edge="1" parent="2ympeW1HPlJ-J8ujCVrC-1" source="2ympeW1HPlJ-J8ujCVrC-5" target="2ympeW1HPlJ-J8ujCVrC-7">
          <mxGeometry relative="1" as="geometry" />
        </mxCell>
        <mxCell id="2ympeW1HPlJ-J8ujCVrC-5" value="Requirement Analysis" style="rounded=1;whiteSpace=wrap;html=1;" vertex="1" parent="2ympeW1HPlJ-J8ujCVrC-1">
          <mxGeometry x="200" y="220" width="120" height="60" as="geometry" />
        </mxCell>
        <mxCell id="2ympeW1HPlJ-J8ujCVrC-14" style="edgeStyle=orthogonalEdgeStyle;rounded=0;orthogonalLoop=1;jettySize=auto;html=1;exitX=1;exitY=0.5;exitDx=0;exitDy=0;entryX=0.5;entryY=0;entryDx=0;entryDy=0;fontSize=12;" edge="1" parent="2ympeW1HPlJ-J8ujCVrC-1" source="2ympeW1HPlJ-J8ujCVrC-7" target="2ympeW1HPlJ-J8ujCVrC-10">
          <mxGeometry relative="1" as="geometry" />
        </mxCell>
        <mxCell id="2ympeW1HPlJ-J8ujCVrC-7" value="Design" style="rounded=1;whiteSpace=wrap;html=1;" vertex="1" parent="2ympeW1HPlJ-J8ujCVrC-1">
          <mxGeometry x="350" y="310" width="120" height="60" as="geometry" />
        </mxCell>
        <mxCell id="2ympeW1HPlJ-J8ujCVrC-9" value="" style="edgeStyle=orthogonalEdgeStyle;rounded=0;orthogonalLoop=1;jettySize=auto;html=1;fontSize=12;" edge="1" parent="2ympeW1HPlJ-J8ujCVrC-1" source="2ympeW1HPlJ-J8ujCVrC-10" target="2ympeW1HPlJ-J8ujCVrC-12">
          <mxGeometry relative="1" as="geometry" />
        </mxCell>
        <mxCell id="2ympeW1HPlJ-J8ujCVrC-10" value="Coding" style="rounded=1;whiteSpace=wrap;html=1;fontSize=12;" vertex="1" parent="2ympeW1HPlJ-J8ujCVrC-1">
          <mxGeometry x="500" y="380" width="120" height="60" as="geometry" />
        </mxCell>
        <mxCell id="2ympeW1HPlJ-J8ujCVrC-11" value="" style="edgeStyle=orthogonalEdgeStyle;rounded=0;orthogonalLoop=1;jettySize=auto;html=1;fontSize=12;" edge="1" parent="2ympeW1HPlJ-J8ujCVrC-1" source="2ympeW1HPlJ-J8ujCVrC-12" target="2ympeW1HPlJ-J8ujCVrC-13">
          <mxGeometry relative="1" as="geometry" />
        </mxCell>
        <mxCell id="2ympeW1HPlJ-J8ujCVrC-12" value="Testing" style="rounded=1;whiteSpace=wrap;html=1;" vertex="1" parent="2ympeW1HPlJ-J8ujCVrC-1">
          <mxGeometry x="650" y="460" width="120" height="60" as="geometry" />
        </mxCell>
        <mxCell id="2ympeW1HPlJ-J8ujCVrC-13" value="Maintenance&amp;nbsp;" style="rounded=1;whiteSpace=wrap;html=1;" vertex="1" parent="2ympeW1HPlJ-J8ujCVrC-1">
          <mxGeometry x="800" y="550" width="120" height="60" as="geometry" />
        </mxCell>
      </root>
    </mxGraphModel>
  </diagram>
  <diagram id="iU_2A5npWSxxXnWVXEzf" name="Iterative waterfall model">
    <mxGraphModel dx="1753" dy="634" grid="1" gridSize="10" guides="1" tooltips="1" connect="1" arrows="1" fold="1" page="1" pageScale="1" pageWidth="850" pageHeight="1100" math="0" shadow="0">
      <root>
        <mxCell id="xPJC3eJ1T_MHryYM_bCt-0" />
        <mxCell id="xPJC3eJ1T_MHryYM_bCt-1" parent="xPJC3eJ1T_MHryYM_bCt-0" />
        <mxCell id="xPJC3eJ1T_MHryYM_bCt-2" value="&lt;b&gt;&lt;font style=&quot;font-size: 36px&quot;&gt;Iterative Waterfall model for Healthcare system&lt;/font&gt;&lt;/b&gt;" style="text;html=1;align=center;verticalAlign=middle;resizable=0;points=[];autosize=1;strokeColor=none;fillColor=none;" vertex="1" parent="xPJC3eJ1T_MHryYM_bCt-1">
          <mxGeometry x="25" y="50" width="820" height="30" as="geometry" />
        </mxCell>
        <mxCell id="xPJC3eJ1T_MHryYM_bCt-3" value="" style="edgeStyle=orthogonalEdgeStyle;rounded=0;orthogonalLoop=1;jettySize=auto;html=1;fontSize=12;" edge="1" parent="xPJC3eJ1T_MHryYM_bCt-1" source="xPJC3eJ1T_MHryYM_bCt-4" target="xPJC3eJ1T_MHryYM_bCt-6">
          <mxGeometry relative="1" as="geometry" />
        </mxCell>
        <mxCell id="xPJC3eJ1T_MHryYM_bCt-19" style="edgeStyle=orthogonalEdgeStyle;rounded=0;orthogonalLoop=1;jettySize=auto;html=1;exitX=0.5;exitY=1;exitDx=0;exitDy=0;fontSize=12;" edge="1" parent="xPJC3eJ1T_MHryYM_bCt-1" source="xPJC3eJ1T_MHryYM_bCt-4">
          <mxGeometry relative="1" as="geometry">
            <mxPoint x="109.64705882352939" y="590" as="targetPoint" />
          </mxGeometry>
        </mxCell>
        <mxCell id="xPJC3eJ1T_MHryYM_bCt-22" style="edgeStyle=none;rounded=0;orthogonalLoop=1;jettySize=auto;html=1;exitX=0.5;exitY=1;exitDx=0;exitDy=0;entryX=0;entryY=0.75;entryDx=0;entryDy=0;fontSize=12;" edge="1" parent="xPJC3eJ1T_MHryYM_bCt-1" source="xPJC3eJ1T_MHryYM_bCt-4" target="xPJC3eJ1T_MHryYM_bCt-13">
          <mxGeometry relative="1" as="geometry">
            <Array as="points">
              <mxPoint x="110" y="595" />
            </Array>
          </mxGeometry>
        </mxCell>
        <mxCell id="xPJC3eJ1T_MHryYM_bCt-4" value="Feasibility Study" style="rounded=1;whiteSpace=wrap;html=1;fontSize=12;" vertex="1" parent="xPJC3eJ1T_MHryYM_bCt-1">
          <mxGeometry x="50" y="140" width="120" height="60" as="geometry" />
        </mxCell>
        <mxCell id="xPJC3eJ1T_MHryYM_bCt-5" value="" style="edgeStyle=orthogonalEdgeStyle;rounded=0;orthogonalLoop=1;jettySize=auto;html=1;fontSize=12;" edge="1" parent="xPJC3eJ1T_MHryYM_bCt-1" source="xPJC3eJ1T_MHryYM_bCt-6" target="xPJC3eJ1T_MHryYM_bCt-8">
          <mxGeometry relative="1" as="geometry" />
        </mxCell>
        <mxCell id="xPJC3eJ1T_MHryYM_bCt-15" style="edgeStyle=orthogonalEdgeStyle;rounded=0;orthogonalLoop=1;jettySize=auto;html=1;exitX=0.5;exitY=1;exitDx=0;exitDy=0;fontSize=12;" edge="1" parent="xPJC3eJ1T_MHryYM_bCt-1" source="xPJC3eJ1T_MHryYM_bCt-6">
          <mxGeometry relative="1" as="geometry">
            <mxPoint x="260" y="590" as="targetPoint" />
          </mxGeometry>
        </mxCell>
        <mxCell id="xPJC3eJ1T_MHryYM_bCt-6" value="Requirement Analysis" style="rounded=1;whiteSpace=wrap;html=1;" vertex="1" parent="xPJC3eJ1T_MHryYM_bCt-1">
          <mxGeometry x="200" y="220" width="120" height="60" as="geometry" />
        </mxCell>
        <mxCell id="xPJC3eJ1T_MHryYM_bCt-7" style="edgeStyle=orthogonalEdgeStyle;rounded=0;orthogonalLoop=1;jettySize=auto;html=1;exitX=1;exitY=0.5;exitDx=0;exitDy=0;entryX=0.5;entryY=0;entryDx=0;entryDy=0;fontSize=12;" edge="1" parent="xPJC3eJ1T_MHryYM_bCt-1" source="xPJC3eJ1T_MHryYM_bCt-8" target="xPJC3eJ1T_MHryYM_bCt-10">
          <mxGeometry relative="1" as="geometry" />
        </mxCell>
        <mxCell id="xPJC3eJ1T_MHryYM_bCt-16" style="edgeStyle=orthogonalEdgeStyle;rounded=0;orthogonalLoop=1;jettySize=auto;html=1;exitX=0.5;exitY=1;exitDx=0;exitDy=0;fontSize=12;" edge="1" parent="xPJC3eJ1T_MHryYM_bCt-1" source="xPJC3eJ1T_MHryYM_bCt-8">
          <mxGeometry relative="1" as="geometry">
            <mxPoint x="410" y="590" as="targetPoint" />
          </mxGeometry>
        </mxCell>
        <mxCell id="xPJC3eJ1T_MHryYM_bCt-8" value="Design" style="rounded=1;whiteSpace=wrap;html=1;" vertex="1" parent="xPJC3eJ1T_MHryYM_bCt-1">
          <mxGeometry x="350" y="310" width="120" height="60" as="geometry" />
        </mxCell>
        <mxCell id="xPJC3eJ1T_MHryYM_bCt-9" value="" style="edgeStyle=orthogonalEdgeStyle;rounded=0;orthogonalLoop=1;jettySize=auto;html=1;fontSize=12;" edge="1" parent="xPJC3eJ1T_MHryYM_bCt-1" source="xPJC3eJ1T_MHryYM_bCt-10" target="xPJC3eJ1T_MHryYM_bCt-12">
          <mxGeometry relative="1" as="geometry" />
        </mxCell>
        <mxCell id="xPJC3eJ1T_MHryYM_bCt-17" style="edgeStyle=orthogonalEdgeStyle;rounded=0;orthogonalLoop=1;jettySize=auto;html=1;fontSize=12;" edge="1" parent="xPJC3eJ1T_MHryYM_bCt-1" source="xPJC3eJ1T_MHryYM_bCt-10">
          <mxGeometry relative="1" as="geometry">
            <mxPoint x="560" y="590" as="targetPoint" />
          </mxGeometry>
        </mxCell>
        <mxCell id="xPJC3eJ1T_MHryYM_bCt-10" value="Coding" style="rounded=1;whiteSpace=wrap;html=1;fontSize=12;" vertex="1" parent="xPJC3eJ1T_MHryYM_bCt-1">
          <mxGeometry x="500" y="380" width="120" height="60" as="geometry" />
        </mxCell>
        <mxCell id="xPJC3eJ1T_MHryYM_bCt-11" value="" style="edgeStyle=orthogonalEdgeStyle;rounded=0;orthogonalLoop=1;jettySize=auto;html=1;fontSize=12;" edge="1" parent="xPJC3eJ1T_MHryYM_bCt-1" source="xPJC3eJ1T_MHryYM_bCt-12" target="xPJC3eJ1T_MHryYM_bCt-13">
          <mxGeometry relative="1" as="geometry" />
        </mxCell>
        <mxCell id="xPJC3eJ1T_MHryYM_bCt-18" style="edgeStyle=orthogonalEdgeStyle;rounded=0;orthogonalLoop=1;jettySize=auto;html=1;exitX=0.5;exitY=1;exitDx=0;exitDy=0;fontSize=12;" edge="1" parent="xPJC3eJ1T_MHryYM_bCt-1" source="xPJC3eJ1T_MHryYM_bCt-12">
          <mxGeometry relative="1" as="geometry">
            <mxPoint x="709.6470588235295" y="590" as="targetPoint" />
          </mxGeometry>
        </mxCell>
        <mxCell id="xPJC3eJ1T_MHryYM_bCt-12" value="Testing" style="rounded=1;whiteSpace=wrap;html=1;" vertex="1" parent="xPJC3eJ1T_MHryYM_bCt-1">
          <mxGeometry x="650" y="460" width="120" height="60" as="geometry" />
        </mxCell>
        <mxCell id="xPJC3eJ1T_MHryYM_bCt-13" value="Maintenance&amp;nbsp;" style="rounded=1;whiteSpace=wrap;html=1;" vertex="1" parent="xPJC3eJ1T_MHryYM_bCt-1">
          <mxGeometry x="800" y="550" width="120" height="60" as="geometry" />
        </mxCell>
        <mxCell id="xPJC3eJ1T_MHryYM_bCt-23" style="edgeStyle=orthogonalEdgeStyle;rounded=0;orthogonalLoop=1;jettySize=auto;html=1;exitX=0.5;exitY=1;exitDx=0;exitDy=0;fontSize=12;" edge="1" parent="xPJC3eJ1T_MHryYM_bCt-1">
          <mxGeometry relative="1" as="geometry">
            <mxPoint x="259" y="280" as="targetPoint" />
            <mxPoint x="259.40999999999997" y="580" as="sourcePoint" />
            <Array as="points">
              <mxPoint x="259" y="500" />
              <mxPoint x="259" y="500" />
            </Array>
          </mxGeometry>
        </mxCell>
        <mxCell id="xPJC3eJ1T_MHryYM_bCt-24" style="edgeStyle=orthogonalEdgeStyle;rounded=0;orthogonalLoop=1;jettySize=auto;html=1;exitX=0.5;exitY=1;exitDx=0;exitDy=0;fontSize=12;" edge="1" parent="xPJC3eJ1T_MHryYM_bCt-1">
          <mxGeometry relative="1" as="geometry">
            <mxPoint x="559" y="440" as="targetPoint" />
            <mxPoint x="559.4100000000001" y="590" as="sourcePoint" />
            <Array as="points">
              <mxPoint x="559" y="560" />
              <mxPoint x="559" y="560" />
            </Array>
          </mxGeometry>
        </mxCell>
        <mxCell id="xPJC3eJ1T_MHryYM_bCt-25" style="edgeStyle=orthogonalEdgeStyle;rounded=0;orthogonalLoop=1;jettySize=auto;html=1;exitX=0.5;exitY=1;exitDx=0;exitDy=0;fontSize=12;entryX=0.5;entryY=1;entryDx=0;entryDy=0;" edge="1" parent="xPJC3eJ1T_MHryYM_bCt-1" target="xPJC3eJ1T_MHryYM_bCt-8">
          <mxGeometry relative="1" as="geometry">
            <mxPoint x="409.40999999999997" y="379.9999999999999" as="targetPoint" />
            <mxPoint x="409.40999999999997" y="580" as="sourcePoint" />
          </mxGeometry>
        </mxCell>
        <mxCell id="xPJC3eJ1T_MHryYM_bCt-26" style="edgeStyle=orthogonalEdgeStyle;rounded=0;orthogonalLoop=1;jettySize=auto;html=1;exitX=0.5;exitY=1;exitDx=0;exitDy=0;fontSize=12;entryX=0.5;entryY=1;entryDx=0;entryDy=0;" edge="1" parent="xPJC3eJ1T_MHryYM_bCt-1" target="xPJC3eJ1T_MHryYM_bCt-4">
          <mxGeometry relative="1" as="geometry">
            <mxPoint x="109.41" y="329.9999999999999" as="targetPoint" />
            <mxPoint x="109.41" y="530" as="sourcePoint" />
            <Array as="points" />
          </mxGeometry>
        </mxCell>
        <mxCell id="xPJC3eJ1T_MHryYM_bCt-27" style="edgeStyle=orthogonalEdgeStyle;rounded=0;orthogonalLoop=1;jettySize=auto;html=1;fontSize=12;" edge="1" parent="xPJC3eJ1T_MHryYM_bCt-1">
          <mxGeometry relative="1" as="geometry">
            <mxPoint x="709.4100000000001" y="519.9999999999999" as="targetPoint" />
            <mxPoint x="709" y="590" as="sourcePoint" />
            <Array as="points">
              <mxPoint x="709.4100000000001" y="580" />
              <mxPoint x="709.4100000000001" y="580" />
            </Array>
          </mxGeometry>
        </mxCell>
      </root>
    </mxGraphModel>
  </diagram>
  <diagram id="BTTBpgfma2KQN3wpItlG" name="V Shaped model">
    <mxGraphModel dx="2603" dy="634" grid="1" gridSize="10" guides="1" tooltips="1" connect="1" arrows="1" fold="1" page="1" pageScale="1" pageWidth="850" pageHeight="1100" math="0" shadow="0">
      <root>
        <mxCell id="VLZHjOJ6KcMEFxiAnT0Q-0" />
        <mxCell id="VLZHjOJ6KcMEFxiAnT0Q-1" parent="VLZHjOJ6KcMEFxiAnT0Q-0" />
        <mxCell id="LN4iH9fSnzV9U_ZMetDF-2" value="" style="edgeStyle=none;rounded=0;orthogonalLoop=1;jettySize=auto;html=1;fontSize=12;" edge="1" parent="VLZHjOJ6KcMEFxiAnT0Q-1" source="LN4iH9fSnzV9U_ZMetDF-0" target="LN4iH9fSnzV9U_ZMetDF-1">
          <mxGeometry relative="1" as="geometry" />
        </mxCell>
        <mxCell id="LN4iH9fSnzV9U_ZMetDF-0" value="Product requirement and Specifications analysis" style="rounded=1;whiteSpace=wrap;html=1;fontSize=12;" vertex="1" parent="VLZHjOJ6KcMEFxiAnT0Q-1">
          <mxGeometry x="-280" y="457" width="120" height="60" as="geometry" />
        </mxCell>
        <mxCell id="LN4iH9fSnzV9U_ZMetDF-1" value="System and Acceptance testing" style="whiteSpace=wrap;html=1;rounded=1;" vertex="1" parent="VLZHjOJ6KcMEFxiAnT0Q-1">
          <mxGeometry x="160" y="457" width="120" height="60" as="geometry" />
        </mxCell>
        <mxCell id="LN4iH9fSnzV9U_ZMetDF-3" value="" style="edgeStyle=none;rounded=0;orthogonalLoop=1;jettySize=auto;html=1;fontSize=12;entryX=1;entryY=0.5;entryDx=0;entryDy=0;" edge="1" parent="VLZHjOJ6KcMEFxiAnT0Q-1" target="LN4iH9fSnzV9U_ZMetDF-0">
          <mxGeometry relative="1" as="geometry">
            <mxPoint x="160" y="486.5" as="sourcePoint" />
            <mxPoint x="-130" y="486.5" as="targetPoint" />
          </mxGeometry>
        </mxCell>
        <mxCell id="LN4iH9fSnzV9U_ZMetDF-13" style="edgeStyle=none;rounded=0;orthogonalLoop=1;jettySize=auto;html=1;exitX=1;exitY=0.5;exitDx=0;exitDy=0;entryX=0;entryY=0.5;entryDx=0;entryDy=0;fontSize=12;" edge="1" parent="VLZHjOJ6KcMEFxiAnT0Q-1" source="LN4iH9fSnzV9U_ZMetDF-8" target="LN4iH9fSnzV9U_ZMetDF-9">
          <mxGeometry relative="1" as="geometry" />
        </mxCell>
        <mxCell id="LN4iH9fSnzV9U_ZMetDF-8" value="Architecture High-Level Design" style="rounded=1;whiteSpace=wrap;html=1;fontSize=12;" vertex="1" parent="VLZHjOJ6KcMEFxiAnT0Q-1">
          <mxGeometry x="-220" y="557" width="120" height="60" as="geometry" />
        </mxCell>
        <mxCell id="LN4iH9fSnzV9U_ZMetDF-12" style="edgeStyle=none;rounded=0;orthogonalLoop=1;jettySize=auto;html=1;exitX=0;exitY=0.5;exitDx=0;exitDy=0;fontSize=12;" edge="1" parent="VLZHjOJ6KcMEFxiAnT0Q-1" source="LN4iH9fSnzV9U_ZMetDF-9" target="LN4iH9fSnzV9U_ZMetDF-8">
          <mxGeometry relative="1" as="geometry" />
        </mxCell>
        <mxCell id="LN4iH9fSnzV9U_ZMetDF-9" value="Integration and Testing" style="whiteSpace=wrap;html=1;rounded=1;" vertex="1" parent="VLZHjOJ6KcMEFxiAnT0Q-1">
          <mxGeometry x="100" y="557" width="120" height="60" as="geometry" />
        </mxCell>
        <mxCell id="LN4iH9fSnzV9U_ZMetDF-19" style="edgeStyle=none;rounded=0;orthogonalLoop=1;jettySize=auto;html=1;exitX=1;exitY=0.5;exitDx=0;exitDy=0;fontSize=12;" edge="1" parent="VLZHjOJ6KcMEFxiAnT0Q-1" source="LN4iH9fSnzV9U_ZMetDF-15" target="LN4iH9fSnzV9U_ZMetDF-17">
          <mxGeometry relative="1" as="geometry" />
        </mxCell>
        <mxCell id="LN4iH9fSnzV9U_ZMetDF-15" value="Detailed Design" style="rounded=1;whiteSpace=wrap;html=1;fontSize=12;" vertex="1" parent="VLZHjOJ6KcMEFxiAnT0Q-1">
          <mxGeometry x="-160" y="657" width="120" height="60" as="geometry" />
        </mxCell>
        <mxCell id="LN4iH9fSnzV9U_ZMetDF-20" style="edgeStyle=none;rounded=0;orthogonalLoop=1;jettySize=auto;html=1;exitX=0;exitY=0.5;exitDx=0;exitDy=0;entryX=1;entryY=0.5;entryDx=0;entryDy=0;fontSize=12;" edge="1" parent="VLZHjOJ6KcMEFxiAnT0Q-1" source="LN4iH9fSnzV9U_ZMetDF-17" target="LN4iH9fSnzV9U_ZMetDF-15">
          <mxGeometry relative="1" as="geometry" />
        </mxCell>
        <mxCell id="LN4iH9fSnzV9U_ZMetDF-17" value="Unit testing" style="whiteSpace=wrap;html=1;rounded=1;" vertex="1" parent="VLZHjOJ6KcMEFxiAnT0Q-1">
          <mxGeometry x="40" y="657" width="120" height="60" as="geometry" />
        </mxCell>
        <mxCell id="LN4iH9fSnzV9U_ZMetDF-21" value="Coding" style="rounded=1;whiteSpace=wrap;html=1;fontSize=12;" vertex="1" parent="VLZHjOJ6KcMEFxiAnT0Q-1">
          <mxGeometry x="-55" y="747" width="120" height="60" as="geometry" />
        </mxCell>
        <mxCell id="LN4iH9fSnzV9U_ZMetDF-22" value="" style="edgeStyle=none;rounded=0;orthogonalLoop=1;jettySize=auto;html=1;fontSize=12;" edge="1" parent="VLZHjOJ6KcMEFxiAnT0Q-1" source="LN4iH9fSnzV9U_ZMetDF-23" target="LN4iH9fSnzV9U_ZMetDF-24">
          <mxGeometry relative="1" as="geometry" />
        </mxCell>
        <mxCell id="LN4iH9fSnzV9U_ZMetDF-23" value="Project Requirements and Planning" style="rounded=1;whiteSpace=wrap;html=1;fontSize=12;" vertex="1" parent="VLZHjOJ6KcMEFxiAnT0Q-1">
          <mxGeometry x="-340" y="368" width="120" height="60" as="geometry" />
        </mxCell>
        <mxCell id="LN4iH9fSnzV9U_ZMetDF-24" value="Production, Operation and Maintenance&amp;nbsp;" style="whiteSpace=wrap;html=1;rounded=1;" vertex="1" parent="VLZHjOJ6KcMEFxiAnT0Q-1">
          <mxGeometry x="220" y="368" width="120" height="60" as="geometry" />
        </mxCell>
        <mxCell id="LN4iH9fSnzV9U_ZMetDF-25" value="" style="edgeStyle=none;rounded=0;orthogonalLoop=1;jettySize=auto;html=1;fontSize=12;entryX=1;entryY=0.5;entryDx=0;entryDy=0;" edge="1" parent="VLZHjOJ6KcMEFxiAnT0Q-1" target="LN4iH9fSnzV9U_ZMetDF-23">
          <mxGeometry relative="1" as="geometry">
            <mxPoint x="160" y="397.5" as="sourcePoint" />
            <mxPoint x="-130" y="397.5" as="targetPoint" />
          </mxGeometry>
        </mxCell>
        <mxCell id="LN4iH9fSnzV9U_ZMetDF-26" value="&lt;b&gt;&lt;font style=&quot;font-size: 36px&quot;&gt;V Shaped SDLC Model For Health Care System for 21st Century&lt;/font&gt;&lt;/b&gt;" style="text;html=1;align=center;verticalAlign=middle;resizable=0;points=[];autosize=1;strokeColor=none;fillColor=none;fontSize=12;" vertex="1" parent="VLZHjOJ6KcMEFxiAnT0Q-1">
          <mxGeometry x="-545" y="270" width="1100" height="30" as="geometry" />
        </mxCell>
      </root>
    </mxGraphModel>
  </diagram>
</mxfile>
